<svg width="534" height="220" viewBox="0 0 534 220" fill="none" xmlns="http://www.w3.org/2000/svg">
<g clip-path="url(#clip0)">
<path d="M104.994 220C61.8197 220 22.4263 192.669 6.97138 152.002C2.34515 139.934 0 127.142 0 114C0 55.548 47.0953 8 104.994 8C162.905 8 210.013 55.548 210.013 114C210.013 138.835 201.311 162.997 185.523 181.998C165.519 206.147 136.16 220 104.994 220ZM104.994 14.4674C50.6322 14.4674 6.40752 59.118 6.40752 114C6.40752 126.353 8.61171 138.356 12.9432 149.674C27.4626 187.87 64.4468 213.533 104.981 213.533C134.25 213.533 161.815 200.533 180.602 177.846C195.429 159.996 203.592 137.321 203.592 114C203.592 59.118 159.368 14.4674 104.994 14.4674Z" fill="#00BC0C"/>
<g clip-path="url(#clip1)">
<path d="M109.593 146.96C113.661 148.65 116.989 147.95 121.124 148.414C125.108 148.853 127.959 151.61 131.911 152.336C136.717 153.221 141.491 152.064 145.336 150.064C152.38 146.387 157.734 139.958 160.419 133.557C163.147 127.061 163.124 119.601 158.879 113.115C154.922 107.045 144.888 99.5306 136.28 103.24C136.128 103.306 135.969 103.326 135.827 103.326C135.734 103.829 135.626 104.329 135.546 104.834C136.614 104.71 137.677 104.53 138.796 104.448C139.485 104.389 139.689 105.073 139.272 105.378C136.076 107.752 129.156 106.443 126.439 103.64C126.171 103.361 126.554 103.006 126.927 103.155C127.886 103.543 128.803 103.924 129.759 104.244C129.702 103.796 129.661 103.34 129.633 102.886C129.58 102.866 129.521 102.879 129.455 102.846C122.381 98.7465 113.023 97.7941 105.867 101.194C98.6218 104.624 96.2056 111.653 95.7497 118.205C95.2851 124.902 95.9412 132.754 99.998 138.997C102.14 142.294 105.458 145.237 109.593 146.96Z" fill="#EC1C2B"/>
<path d="M148.05 97.9055C147.439 97.5613 147 97.1095 146.504 96.66C146.171 96.3485 145.822 96.0459 145.475 95.7323C143.408 95.3602 141.405 94.8521 139.586 94.2605C142.698 96.9798 146.371 98.8432 150.944 99.2295C152.636 99.3735 163.111 98.9058 162.797 96.3257C162.453 93.4822 151.564 92.5349 149.205 92.4877C145.972 92.4145 143.021 92.881 140.243 93.8696C142.583 94.3074 144.903 94.7759 147.257 95.0359C147.786 95.0971 148.32 95.1254 148.838 95.1625C148.857 95.1318 148.849 95.0967 148.896 95.0703C149.777 94.4226 150.708 93.4678 151.82 93.0701C151.97 93.0152 152.184 93.1841 152.094 93.3048C151.565 94.0532 150.536 94.6439 149.68 95.217C151.649 95.3148 153.615 95.3337 155.594 95.5456C156.026 95.5915 155.953 96.0523 155.604 96.1095C154.951 96.2085 154.275 96.2703 153.587 96.3189C154.05 96.6171 154.497 96.924 154.882 97.2661C155.117 97.4833 154.732 97.6809 154.497 97.5538C153.842 97.214 153.248 96.76 152.664 96.3302C150.714 96.3816 148.656 96.2245 146.621 95.9249C146.757 96.0477 146.895 96.1595 147.032 96.2823C147.545 96.7121 148.063 97.109 148.434 97.6289C148.6 97.8351 148.323 98.0612 148.05 97.9055Z" fill="#CCDB29"/>
<path d="M131.065 104.586C131.625 104.719 132.202 104.833 132.803 104.883C133.194 104.923 133.578 104.916 133.947 104.907C134.887 99.1512 136.636 93.6475 139.276 88.3409C136.654 87.8922 133.794 87.3384 132.345 89.5157C131.547 90.7052 131.692 93.0112 131.503 94.387C131.08 97.7728 131.109 101.174 131.065 104.586Z" fill="#CC844C"/>
<path d="M117.398 149.927C119.862 150.024 121.954 149.973 124.24 150.931C125.038 151.26 125.706 151.692 126.472 152.049C127.921 152.739 129.334 153.3 130.948 153.668C134.601 154.494 138.402 154.297 141.835 153.378C156.248 149.519 165.758 134.469 164.391 122.422C163.713 116.41 160.257 110.218 154.683 105.86C149.778 102.025 142.216 99.0401 136.158 101.59C136.681 99.2664 137.381 96.993 138.19 94.748C138.297 94.6975 138.403 94.6579 138.508 94.6184C144.792 101.742 156.674 101.34 164.468 97.3998C164.792 97.2373 164.775 96.8972 164.588 96.6428C159.733 90.2513 145.995 90.1126 138.713 93.3238C139.399 91.5879 140.138 89.8717 141 88.1862C141.17 87.8307 140.885 87.392 140.401 87.3154C137.121 86.8188 132.582 85.7743 131.009 88.5506C129.79 90.697 129.938 93.8806 129.748 96.246C129.593 98.1221 129.522 100 129.594 101.878C119.117 95.1932 103.967 97.4403 97.9614 106.195C94.3194 111.478 93.8895 117.956 94.2687 124.066C94.6598 130.37 95.9699 137.314 100.987 142.685C105.105 147.104 110.793 149.669 117.398 149.927ZM148.435 97.6177C148.062 97.1088 147.532 96.6988 147.033 96.2711C146.894 96.1593 146.758 96.0365 146.621 95.9137C148.655 96.2243 150.702 96.3682 152.665 96.319C153.249 96.7488 153.845 97.1918 154.498 97.5426C154.733 97.6697 155.12 97.4611 154.883 97.2549C154.498 96.9128 154.037 96.6037 153.588 96.3077C154.274 96.2701 154.952 96.1973 155.605 96.0983C155.954 96.0411 156.027 95.5803 155.595 95.5344C153.63 95.3247 151.663 95.3058 149.681 95.2058C150.537 94.6327 151.566 94.042 152.095 93.2936C152.185 93.1729 151.971 93.004 151.821 93.0589C150.723 93.4588 149.792 94.4136 148.897 95.0591C148.864 95.0877 148.858 95.1206 148.839 95.1513C148.307 95.112 147.787 95.0859 147.258 95.0247C144.891 94.7625 142.57 94.294 140.244 93.8584C143.008 92.8676 145.973 92.4033 149.206 92.4765C151.565 92.5237 162.454 93.471 162.798 96.3145C163.112 98.8946 152.623 99.3601 150.945 99.2183C146.37 98.843 142.699 96.9686 139.587 94.2493C141.405 94.8519 143.407 95.36 145.476 95.7211C145.821 96.0457 146.17 96.3483 146.503 96.6597C146.985 97.1071 147.438 97.5611 148.049 97.9053C148.322 98.061 148.599 97.8348 148.435 97.6177ZM132.358 89.5176C133.808 87.3404 136.666 87.9052 139.289 88.3428C136.649 93.6494 134.886 99.1509 133.96 104.909C133.577 104.916 133.207 104.924 132.816 104.885C132.201 104.833 131.638 104.721 131.078 104.588C131.122 101.176 131.093 97.7747 131.53 94.3912C131.691 93.011 131.56 90.7072 132.358 89.5176ZM95.7489 118.205C96.2049 111.653 98.621 104.624 105.867 101.194C113.023 97.7938 122.394 98.7484 129.458 102.824C129.524 102.857 129.583 102.844 129.636 102.864C129.663 103.318 129.72 103.765 129.761 104.222C128.82 103.904 127.902 103.523 126.929 103.132C126.556 102.983 126.174 103.339 126.442 103.618C129.156 106.431 136.077 107.74 139.275 105.356C139.691 105.051 139.488 104.367 138.798 104.426C137.678 104.519 136.629 104.701 135.549 104.812C135.629 104.307 135.736 103.807 135.83 103.304C135.985 103.306 136.131 103.284 136.283 103.218C144.877 99.5063 154.911 107.021 158.881 113.093C163.125 119.59 163.135 127.048 160.422 133.535C157.736 139.936 152.383 146.365 145.339 150.041C141.494 152.042 136.719 153.198 131.914 152.314C127.948 151.585 125.097 148.828 121.127 148.391C116.99 147.939 113.662 148.638 109.595 146.938C105.461 145.215 102.143 142.272 99.999 138.986C95.9404 132.754 95.2843 124.902 95.7489 118.205Z" fill="black"/>
<path d="M131.927 152.327C136.732 153.212 141.507 152.055 145.352 150.055C146.232 149.598 147.091 149.093 147.912 148.56C147.114 148.051 146.332 147.533 145.461 147.126C143.01 145.962 140.117 145.796 137.351 145.539C126.725 144.543 114.991 141.055 109.976 133.255C107.747 129.787 107.149 125.869 107.14 122.077C107.141 113.474 110.81 104.529 118.482 99.299C114.106 98.8314 109.681 99.3907 105.866 101.205C98.6218 104.624 96.2056 111.653 95.7497 118.205C95.285 124.902 95.9412 132.754 99.998 138.997C102.142 142.283 105.46 145.226 109.594 146.949C113.663 148.639 116.991 147.939 121.126 148.403C125.109 148.842 127.961 151.599 131.927 152.327Z" fill="#C91623"/>
<path d="M156.305 115.227C154.728 112.57 152.591 110.399 149.892 108.386C148.192 107.127 145.845 108.972 147.175 110.419C148.999 112.417 150.545 114.641 151.672 116.923C152.637 118.886 152.716 121.429 154.9 122.854C155.67 123.359 156.944 123.369 157.527 122.73C159.424 120.59 157.648 117.486 156.305 115.227Z" fill="#F1684F"/>
<path d="M158.578 127.103C158.724 126.361 157.967 125.589 157.055 125.445C156.018 125.28 155.337 125.825 155.094 126.551C154.684 127.802 154.219 129.393 154.865 130.687C155.417 131.764 157.708 132.06 158.153 130.859C158.595 129.681 158.326 128.334 158.578 127.103Z" fill="#F1684F"/>
</g>
<g clip-path="url(#clip2)">
<path d="M42.19 106.82C44.01 105.68 46.05 105.22 48.14 105.04C48.24 105.19 48.41 105.31 48.65 105.32C54.51 105.47 59.95 102.94 65.75 102.54C71.2 102.16 76.86 103.49 81.5 106.39C90.25 111.85 93.11 122.02 95.8 131.36C96.59 134.11 98.55 138.24 97.04 140.85C95.55 143.42 92.22 143.52 89.6 144.09C84.54 145.19 79.77 147.72 74.47 147.46C68.83 147.19 63.65 144.64 58.99 141.6C54.72 138.81 50.31 135.62 47.49 131.3C44.5 126.72 44.28 121.08 42.51 116.04C41.49 113.17 38.81 108.93 42.19 106.82Z" fill="#FFDD00"/>
<path d="M48.29 104.15C48.39 104.08 48.5 104.02 48.65 104.01C55.47 103.53 61.94 100.71 68.82 101.03C74.21 101.28 79.57 103.02 83.93 106.24C88.12 109.32 90.99 113.67 93.04 118.4C95.58 124.26 97.81 131.07 98.96 137.34C99.84 142.14 96.16 144.23 92 145.07C86 146.28 80.12 149.25 73.89 148.83C67.63 148.41 61.88 145.23 56.85 141.7C52.22 138.45 47.52 134.73 45.15 129.45C43.76 126.35 43.18 122.98 42.38 119.71C41.88 117.65 41.27 115.67 40.4 113.73C39.88 112.58 39.1 111.41 39.01 110.1C38.72 105.83 44.31 104.18 48.29 104.15ZM42.5 116.03C44.28 121.08 44.49 126.72 47.48 131.29C50.31 135.61 54.72 138.8 58.98 141.59C63.63 144.63 68.82 147.18 74.46 147.45C79.76 147.71 84.53 145.18 89.59 144.08C92.21 143.51 95.53 143.41 97.03 140.84C98.55 138.23 96.59 134.1 95.79 131.35C93.1 122.01 90.24 111.84 81.49 106.36C76.85 103.46 71.19 102.13 65.74 102.51C59.94 102.91 54.5 105.44 48.64 105.29C48.39 105.28 48.23 105.17 48.13 105.01C46.04 105.19 44 105.66 42.18 106.79C38.81 108.93 41.49 113.17 42.5 116.03Z" fill="black"/>
<path d="M74.46 147.46C68.82 147.19 63.64 144.64 58.98 141.6C54.71 138.81 50.3 135.62 47.48 131.3C44.49 126.72 44.27 121.08 42.5 116.04C41.6 113.48 39.37 109.82 41.33 107.56C44.85 114.99 50.24 121.62 56.33 127.21C59.19 129.84 62.3 132.32 65.95 133.67C69.61 135.02 73.6 135.16 77.5 134.99C83.08 134.74 89.28 133.53 92.49 128.96C93.22 127.93 93.71 126.8 94.08 125.61C94.69 127.54 95.25 129.47 95.8 131.37C96.59 134.12 98.55 138.25 97.04 140.86C95.55 143.43 92.22 143.53 89.6 144.1C84.53 145.18 79.76 147.71 74.46 147.46Z" fill="#FDBC11"/>
<path d="M82.49 128.33C82.94 127.71 83.51 127.66 84.23 127.54C84.93 127.43 85.65 127.33 86.37 127.35C87.03 127.37 87.46 128.41 86.74 128.72C86.09 129 85.42 129.19 84.73 129.35C84.07 129.5 83.37 129.73 82.76 129.34C82.44 129.15 82.24 128.67 82.49 128.33Z" fill="#FDBC11"/>
<path d="M78.42 131.45C79.13 130.92 80.52 131.22 81.36 131.24C82.28 131.26 82.28 132.64 81.36 132.67C80.51 132.69 79.13 132.98 78.42 132.46C78.05 132.18 78.05 131.72 78.42 131.45Z" fill="#FDBC11"/>
<path d="M73.27 128.95C73.92 128.73 74.56 128.82 75.16 129.14C75.79 129.47 75.35 130.42 74.69 130.26C73.97 130.09 73.37 130.65 72.68 130.52C72.55 130.5 72.45 130.37 72.41 130.25C72.27 129.69 72.76 129.12 73.27 128.95Z" fill="#FDBC11"/>
<path d="M68.96 131.55C69.46 130.91 70.67 131.24 71.37 131.3C72.65 131.4 72.41 133.31 71.13 133.05C70.34 132.89 69.18 132.88 68.84 132.03C68.76 131.86 68.86 131.68 68.96 131.55Z" fill="#FDBC11"/>
<path d="M63.16 127.89C63.6 127.59 64.04 127.75 64.51 127.9C65.45 128.2 65.03 129.71 64.1 129.38C63.57 129.19 63.1 129.06 62.91 128.49C62.84 128.26 62.98 128.02 63.16 127.89Z" fill="#FDBC11"/>
<path d="M83.54 137.38C84.38 136.88 85.28 136.76 86.23 136.97C86.93 137.12 86.69 138.07 86.07 138.13C85.44 138.19 84.85 138.38 84.28 138.66C83.44 139.07 82.71 137.87 83.54 137.38Z" fill="#FFDD00"/>
<path d="M78.71 140.38C78.87 140.19 79.18 140.13 79.41 140.2C80.05 140.38 80.69 140.45 81.36 140.39C82.11 140.31 82.28 141.57 81.54 141.72C80.67 141.9 79.87 141.89 79.03 141.59C78.75 141.49 78.48 141.22 78.5 140.9C78.52 140.67 78.58 140.55 78.71 140.38Z" fill="#FFDD00"/>
<path d="M73.07 138.8C73.41 138.03 74.44 137.88 75.18 137.97C76.27 138.11 76.07 139.68 74.98 139.47C74.42 139.36 73.85 139.51 73.31 139.38C73.04 139.31 72.97 139.03 73.07 138.8Z" fill="#FFDD00"/>
<path d="M68.55 140.33C69.26 139.65 70.39 140.01 71.18 140.37C72.12 140.8 71.3 142.22 70.36 141.77C69.81 141.5 69.2 141.64 68.68 141.34C68.32 141.14 68.25 140.62 68.55 140.33Z" fill="#FFDD00"/>
<path d="M61.23 136.13C61.86 135.13 63.25 135.59 64.11 135.96C64.94 136.32 64.34 137.79 63.49 137.44C62.79 137.16 61.86 137.26 61.31 136.71C61.15 136.57 61.11 136.31 61.23 136.13Z" fill="#FFDD00"/>
<path d="M57.64 134.94C58.6 134.77 59.31 135.71 60.01 136.26C60.61 136.72 59.84 137.68 59.21 137.3C58.54 136.89 57.38 136.54 57.22 135.68C57.17 135.38 57.3 135 57.64 134.94Z" fill="#FFDD00"/>
<path d="M53 129.78C53.78 129.63 54.25 130.07 54.78 130.57C55.36 131.12 54.62 132.06 53.93 131.67C53.31 131.31 52.76 130.97 52.69 130.18C52.67 130.01 52.83 129.81 53 129.78Z" fill="#FFDD00"/>
<path d="M70.62 106.19C70.63 106.11 70.67 106.01 70.72 105.95C70.99 105.58 71.39 105.36 71.86 105.49C72.45 105.65 73.01 105.95 73.56 106.21C74.1 106.47 74.55 106.72 74.91 107.22C75.17 107.58 74.92 108.23 74.47 108.3C73.84 108.39 73.37 108.26 72.79 108.05C72.22 107.84 71.61 107.66 71.09 107.34C70.67 107.08 70.55 106.64 70.62 106.19Z" fill="#FFF359"/>
<path d="M65.86 106.54C65.98 106.11 66.44 106 66.83 106.12C67.45 106.3 67.95 106.71 68.6 106.86C69.36 107.04 69.22 108.35 68.41 108.26C67.62 108.17 65.5 107.75 65.86 106.54Z" fill="#FFF359"/>
<path d="M61.85 105.33C62.46 104.33 63.72 104.62 64.49 105.26C65.12 105.78 64.3 106.83 63.62 106.39C63.23 106.13 62.82 106.3 62.38 106.26C61.94 106.21 61.59 105.76 61.85 105.33Z" fill="#FFF359"/>
<path d="M58.48 107.89C58.55 107.63 58.77 107.4 59.03 107.34C59.62 107.21 59.99 107.18 60.6 107.33C61.13 107.46 61.62 107.66 62.12 107.88C62.59 108.09 62.7 108.77 62.46 109.19C62.18 109.68 61.63 109.73 61.15 109.53C60.43 109.23 58.14 109.14 58.48 107.89Z" fill="#FFF359"/>
<path d="M53.04 107.75C53.45 107.29 54.07 107.14 54.64 106.98C55.83 106.65 56.17 108.54 54.87 108.7C54.26 108.78 53.7 108.84 53.14 108.56C52.83 108.4 52.84 107.98 53.04 107.75Z" fill="#FFF359"/>
</g>
<g clip-path="url(#clip3)">
<path d="M113.738 100.735C114.286 93.4944 116.314 83.2178 107.38 80.1348C107.293 80.2057 107.181 80.253 107.057 80.2175C96.8041 77.6188 91.2175 87.104 87.6714 94.4748C86.2903 97.3451 84.959 100.251 83.0553 102.85C80.9152 105.791 77.9415 107.563 75.4654 110.161C70.0654 115.831 67.7636 126.155 70.2645 133.36C71.7825 137.766 73.5617 142.137 77.8544 144.7C81.4378 146.838 85.7304 148.669 89.7866 149.732C107.654 154.421 125.67 135.912 118.753 119.339C116.053 112.89 113.203 107.917 113.738 100.735Z" fill="#CCDB29"/>
<path d="M105.564 78.9536C105.676 78.9773 105.775 78.9891 105.887 79.0245C105.962 78.7292 106.248 78.4811 106.671 78.5284C107.38 78.6111 108.027 78.7646 108.649 78.9654C109.296 77.4181 110.03 75.8825 110.727 74.3587C110.901 73.9807 111.772 72.7286 111.673 72.2916C111.449 71.2403 109.881 71.2639 109.047 71.1576C107.915 71.0159 106.099 70.5788 105.812 72.3152C105.738 72.7877 106.012 73.6382 106.061 74.1225C106.223 75.6462 106.298 77.2409 105.875 78.7292C105.825 78.8828 105.7 78.9536 105.564 78.9536Z" fill="#AFBD23"/>
<path d="M115.505 104.822C115.206 100.464 116.376 96.1521 116.364 91.8053C116.339 86.8323 114.348 81.3987 109.607 79.3198C110.229 78.0677 110.802 76.7802 111.374 75.5045C111.822 74.5359 112.892 73.0475 112.855 71.949C112.805 70.3898 110.429 70.2835 109.259 70.1418C107.89 69.9764 105.713 69.6575 104.941 71.0985C104.444 72.0199 104.904 73.2365 105.004 74.1697C105.165 75.6698 105.066 77.1818 105.24 78.6701C105.253 78.8119 105.352 78.8828 105.464 78.9182C91.5659 75.7762 87.4599 95.3135 81.2138 103.015C78.8622 105.909 75.4281 107.763 73.1387 110.705C71.3097 113.044 70.3516 115.843 69.4682 118.595C67.1166 125.931 67.6018 131.541 70.812 138.534C73.7608 144.96 79.7332 147.819 86.4396 150.193C92.8848 152.496 99.6037 152.78 105.949 150.016C112.332 147.24 117.147 142.019 119.86 135.924C122.747 129.427 122.697 123.521 119.723 117.107C117.869 113.079 115.816 109.299 115.505 104.822ZM106.061 74.1225C106.012 73.65 105.738 72.7995 105.812 72.3152C106.086 70.5788 107.915 71.0159 109.047 71.1576C109.881 71.2639 111.449 71.2403 111.673 72.2916C111.772 72.7286 110.901 73.9807 110.727 74.3587C110.03 75.8943 109.296 77.418 108.649 78.9654C108.027 78.7646 107.38 78.6111 106.671 78.5284C106.248 78.4811 105.962 78.7292 105.887 79.0245C105.775 79.0009 105.676 78.9772 105.564 78.9536C105.7 78.9536 105.825 78.8828 105.875 78.7292C106.31 77.2409 106.235 75.6462 106.061 74.1225ZM89.7866 149.732C85.7304 148.669 81.4378 146.838 77.8544 144.7C73.5493 142.137 71.7825 137.755 70.2645 133.36C67.7636 126.155 70.0654 115.831 75.4654 110.161C77.9415 107.563 80.9152 105.791 83.0553 102.85C84.9465 100.251 86.2903 97.3452 87.6714 94.4748C91.2175 87.104 96.8166 77.6189 107.057 80.2175C107.194 80.253 107.293 80.2057 107.38 80.1348C116.314 83.2178 114.286 93.4944 113.738 100.735C113.191 107.917 116.04 112.89 118.74 119.351C125.671 135.912 107.654 154.422 89.7866 149.732Z" fill="black"/>
<path d="M114.385 141.605C109.433 143.413 104.046 144.298 98.8447 143.377C93.2456 142.385 88.0447 139.196 85.1207 134.565C82.1968 129.935 81.724 123.887 84.2498 119.044C86.1037 115.5 89.3387 112.784 91.5783 109.441C94.3405 105.295 95.4355 100.381 96.4806 95.5733C97.4387 91.191 98.4714 86.6315 101.358 83.0879C102.416 81.7885 103.797 80.69 105.327 79.8868C96.1696 78.7056 91.006 87.5174 87.659 94.463C86.2779 97.3333 84.9465 100.239 83.0428 102.838C80.9152 105.791 77.9415 107.563 75.4654 110.161C70.0654 115.831 67.7636 126.155 70.2645 133.36C71.7825 137.766 73.5617 142.137 77.8544 144.7C81.4378 146.838 85.7304 148.669 89.7866 149.732C99.1433 152.201 108.55 148.279 114.385 141.605Z" fill="#AFBD23"/>
<path d="M111.934 90.754C112.071 88.7932 110.765 86.5016 109.607 84.966C108.5 83.5131 106.161 84.9424 107.144 86.4898C107.604 87.2221 107.965 87.9781 108.226 88.805C108.488 89.6436 108.5 90.5059 108.749 91.3446C108.898 91.8289 109.421 92.3132 109.968 92.3722C110.279 92.4077 110.516 92.4077 110.827 92.325C111.586 92.1242 111.897 91.4155 111.934 90.754Z" fill="#FFF245"/>
<path d="M111.511 96.4829C111.548 95.1953 109.247 95.2898 109.383 96.601C109.446 97.2625 109.446 97.6877 109.931 98.1956C110.217 98.5027 110.852 98.4555 111.113 98.1366C111.536 97.605 111.486 97.1443 111.511 96.4829Z" fill="#FFF245"/>
</g>
</g>
<path d="M528.37 96.0251C522.398 103.428 509.781 105.627 501.449 117.701C493.118 129.775 491.656 148.438 491.605 153.215C496.629 147.741 511.36 142.475 517.934 132.561C524.513 122.643 528.469 109.051 528.37 96.0251Z" fill="#3C6B0E"/>
<path d="M289 46.8419C300.119 39.8534 311.502 33.5614 323.255 28.4801C334.991 23.3216 347.058 19.3729 359.332 16.8874C371.605 14.5043 384.104 13.6104 396.478 14.9407C408.834 16.1939 421.023 19.7728 432.431 25.6647C420.548 21.6826 408.409 19.5125 396.277 18.9295C384.123 18.4228 371.957 19.5027 359.921 21.9419C347.868 24.2783 335.964 27.9744 324.167 32.287C312.369 36.6508 300.676 41.6566 289 46.8419Z" fill="#00BC0C"/>
<path d="M485.558 158.969C474.503 166.701 462.936 173.271 451.039 178.605C439.14 183.99 426.91 188.166 414.508 191.059C402.089 193.848 389.438 195.353 376.833 194.658C364.246 194.066 351.646 191.169 340.106 184.967C352.142 189.26 364.572 190.719 376.915 190.692C389.28 190.564 401.637 188.873 413.859 186.028C426.08 183.286 438.165 179.389 450.126 174.824C462.049 170.206 473.886 164.922 485.558 158.969Z" fill="#00BC0C"/>
<path d="M320.339 38.3388C310.926 44.0848 297.207 44.7926 283.274 54.2934C269.34 63.7921 259.296 79.5249 257.053 83.5827C264.627 79.3911 281.887 76.2647 293.06 68.4392C304.233 60.6136 314.452 49.4282 320.339 38.3388Z" fill="#99CC1B"/>
<g clip-path="url(#clip4)">
<path d="M214.57 120.908C215.53 109.988 216.19 96.4876 220.87 86.0476C219.67 86.1676 218.47 86.2276 217.27 86.2876C216.91 86.2876 215.11 85.9876 215.47 85.6276C215.41 85.6276 215.41 85.6276 215.41 85.6276C217.33 84.1876 219.85 83.2276 222.61 82.6276C222.79 82.2676 222.97 81.9076 223.21 81.6076C223.99 80.3476 229.15 79.9876 230.05 81.5476C231.01 81.4876 231.97 81.4276 232.87 81.3676C234.37 81.1276 235.87 80.8876 237.37 80.7676C243.91 80.0476 250.75 79.9276 256.75 82.8676C260.35 84.6676 253.21 85.8676 251.47 85.0876C250.21 84.4876 248.95 84.1276 247.69 83.7676C247.09 83.8276 246.49 83.7676 246.31 83.7676C240.79 82.7476 235.51 83.5276 230.17 84.4876C229.93 89.8876 228.25 95.4676 227.65 100.688C226.93 106.508 226.15 112.268 225.55 118.088C226.57 117.968 227.53 117.848 228.55 117.788C232.81 117.548 237.85 117.488 241.09 120.788C242.29 121.988 236.05 122.348 235.03 121.748C232.21 120.008 228.73 120.188 225.25 121.028C224.71 127.628 224.35 134.348 224.65 141.008C224.71 144.068 224.95 147.068 225.37 150.008C225.73 152.888 226.81 155.648 226.21 158.528C225.73 160.448 220.87 160.148 219.67 159.188C215.05 155.468 214.81 147.788 214.33 142.208C213.79 136.328 213.85 130.508 214.27 124.688C212.53 124.748 208.81 124.448 210.37 123.308C211.63 122.408 213.07 121.568 214.57 120.908Z" fill="#FF3B01"/>
<path d="M244.39 142.028C242.05 134.108 245.29 121.208 253.81 118.148C256.63 117.188 260.29 117.188 262.57 118.868C262.93 118.988 263.29 119.108 263.59 119.228C264.01 118.148 264.55 117.128 265.09 116.228C265.81 115.148 270.13 115.208 270.61 116.468C272.77 122.348 271.69 129.428 271.57 135.608C271.51 139.808 271.51 143.768 272.65 147.908C273.07 149.528 275.41 152.528 274.93 154.088C274.87 154.388 274.27 154.448 274.09 154.448C267.55 155.168 262.99 150.908 261.79 144.428C261.49 142.988 261.31 141.308 261.13 139.628C259.81 142.748 257.77 146.528 255.07 147.788C250.03 150.068 245.83 146.828 244.39 142.028ZM251.23 145.028C251.71 146.588 252.61 146.588 254.05 145.028C254.77 144.248 255.37 143.348 255.97 142.388C257.29 140.288 258.13 138.068 258.97 135.728C259.93 132.908 260.65 129.968 261.49 127.088C261.73 125.588 262.03 124.088 262.39 122.648C261.37 121.868 260.65 120.488 259.57 119.828C258.49 119.228 257.11 119.708 255.91 120.248C252.85 122.888 250.63 128.468 249.97 131.408C249.19 134.828 248.29 142.388 251.23 145.028Z" fill="#FF3B01"/>
<path d="M288.13 123.608C288.85 121.928 290.53 120.668 290.29 118.688C290.23 118.328 290.11 117.968 289.81 117.788C289.57 117.668 289.33 117.728 289.03 117.728C283.09 118.688 282.61 126.788 283.45 131.468C284.23 136.028 286.69 139.748 289.51 143.228C289.63 143.168 289.81 143.108 289.99 143.048C293.35 141.608 296.71 140.648 300.31 140.228C300.61 140.168 302.95 140.408 302.29 140.648C298.63 141.848 294.55 143.048 290.71 144.728C290.83 144.848 290.95 144.968 291.07 145.148C294.79 149.528 299.53 156.908 292.51 161.048C289.03 163.088 283.51 162.188 280.33 159.848C274.15 155.288 278.41 149.228 283.57 146.108C282.55 144.788 281.59 143.408 280.75 141.908C280.21 141.128 279.73 140.528 279.61 140.408C278.17 138.248 277.03 135.968 276.43 133.448C275.23 127.928 278.11 121.088 282.25 117.428C285.61 114.428 295.15 113.468 295.09 119.948C295.09 122.408 293.59 124.268 291.25 124.748C290.71 124.808 288.37 125.048 288.13 124.208C288.07 124.088 288.07 123.968 288.01 123.788L288.13 123.608ZM282.13 156.128C282.85 158.948 287.23 163.328 289.39 157.688C289.93 156.368 289.15 153.968 288.49 152.528C287.29 151.328 286.27 149.828 285.25 148.388C283.15 150.428 281.23 152.528 282.13 156.128Z" fill="#FF3B01"/>
<path d="M320.53 161.348C318.37 163.688 313.75 162.848 311.11 161.888C304.81 159.608 302.89 153.908 301.93 147.788C300.43 138.128 300.91 127.868 301.33 118.148C301.39 117.608 301.39 117.008 301.39 116.408C300.07 116.828 298.69 117.248 297.31 117.728C296.65 117.968 291.61 117.608 293.17 116.708C295.69 115.208 298.57 114.308 301.51 113.768C301.75 106.448 302.23 97.3276 306.79 92.4676C307.57 91.6276 311.35 91.4476 311.83 92.7076C313.63 97.4476 311.47 103.748 311.11 108.728C310.99 110.228 310.87 111.668 310.81 113.168C313.75 113.228 316.99 113.768 318.07 115.508C318.31 115.928 317.11 115.928 316.93 115.988C314.77 116.108 312.79 115.808 310.69 115.568C310.51 119.588 310.45 123.608 310.33 127.568C310.27 133.088 307.75 163.568 318.79 161.168C318.97 161.108 320.65 161.168 320.53 161.348Z" fill="#FF3B01"/>
<path d="M347.71 120.908C348.67 109.988 349.33 96.4876 354.01 86.0476C352.81 86.1676 351.61 86.2276 350.41 86.2876C350.05 86.2876 348.25 85.9876 348.61 85.6276C348.55 85.6276 348.55 85.6276 348.55 85.6276C350.47 84.1876 352.99 83.2276 355.75 82.6276C355.93 82.2676 356.11 81.9076 356.35 81.6076C357.13 80.3476 362.29 79.9876 363.19 81.5476C364.15 81.4876 365.11 81.4276 366.01 81.3676C367.51 81.1276 369.01 80.8876 370.51 80.7676C377.05 80.0476 383.89 79.9276 389.89 82.8676C393.49 84.6676 386.35 85.8676 384.61 85.0876C383.35 84.4876 382.09 84.1276 380.83 83.7676C380.23 83.8276 379.63 83.7676 379.45 83.7676C373.93 82.7476 368.65 83.5276 363.31 84.4876C363.07 89.8876 361.39 95.4676 360.79 100.688C360.07 106.508 359.29 112.268 358.69 118.088C359.71 117.968 360.67 117.848 361.69 117.788C365.95 117.548 370.99 117.488 374.23 120.788C375.43 121.988 369.19 122.348 368.17 121.748C365.35 120.008 361.87 120.188 358.39 121.028C357.85 127.628 357.49 134.348 357.79 141.008C357.85 144.068 358.09 147.068 358.51 150.008C358.87 152.888 359.95 155.648 359.35 158.528C358.87 160.448 354.01 160.148 352.81 159.188C348.19 155.468 347.95 147.788 347.47 142.208C346.93 136.328 346.99 130.508 347.41 124.688C345.67 124.748 341.95 124.448 343.51 123.308C344.77 122.408 346.21 121.568 347.71 120.908Z" fill="#FF3B01"/>
<path d="M398.95 126.368C399.31 125.708 402.85 115.628 400.09 115.328C398.77 115.208 395.77 123.308 395.23 124.628C393.13 129.728 391.03 134.648 390.73 140.228C390.61 143.348 391.27 146.468 390.97 149.588C390.73 152.408 385.69 152.228 383.89 151.508C380.29 150.128 379.99 145.868 380.05 142.508C380.11 134.108 379.45 123.548 383.83 116.108C384.61 114.848 389.89 114.728 390.19 116.468C390.73 119.348 390.85 122.228 390.85 125.108C390.91 124.988 390.97 124.808 391.03 124.628C392.35 121.268 394.09 115.208 397.75 113.768C406.15 110.528 406.57 121.868 404.47 126.908C403.93 128.228 398.35 127.628 398.95 126.368Z" fill="#FF3B01"/>
<path d="M423.85 139.208C426.07 131.168 424.33 122.228 429.67 115.148C430.15 114.488 434.59 114.728 435.01 115.388C438.85 121.928 436.03 128.768 436.21 136.028C436.33 141.728 435.25 152.588 440.35 156.488C440.59 156.668 439.99 156.848 439.93 156.848C432.73 158.588 429.25 153.848 427.57 147.428C427.21 146.168 426.91 144.848 426.61 143.528C424.75 150.908 415.63 154.328 410.47 147.608C407.65 143.948 407.71 138.728 407.71 134.288C407.65 128.948 408.25 123.608 409.51 118.388C409.75 117.548 409.99 116.648 410.59 115.928C411.13 115.268 412.15 114.848 412.99 115.268C414.13 115.808 414.13 117.428 414.01 118.688C413.23 125.708 412.51 132.848 413.05 139.868C413.29 142.388 413.65 144.908 414.85 147.128C415.51 148.388 416.77 149.648 418.21 149.348C418.81 149.228 419.29 148.808 419.77 148.388C422.41 145.808 422.95 142.568 423.85 139.208Z" fill="#FF3B01"/>
<path d="M461.77 161.348C459.61 163.688 454.99 162.848 452.35 161.888C446.05 159.608 444.13 153.908 443.17 147.788C441.67 138.128 442.15 127.868 442.57 118.148C442.63 117.608 442.63 117.008 442.63 116.408C441.31 116.828 439.93 117.248 438.55 117.728C437.89 117.968 432.85 117.608 434.41 116.708C436.93 115.208 439.81 114.308 442.75 113.768C442.99 106.448 443.47 97.3276 448.03 92.4676C448.81 91.6276 452.59 91.4476 453.07 92.7076C454.87 97.4476 452.71 103.748 452.35 108.728C452.23 110.228 452.11 111.668 452.05 113.168C454.99 113.228 458.23 113.768 459.31 115.508C459.55 115.928 458.35 115.928 458.17 115.988C456.01 116.108 454.03 115.808 451.93 115.568C451.75 119.588 451.69 123.608 451.57 127.568C451.51 133.088 448.99 163.568 460.03 161.168C460.21 161.108 461.89 161.168 461.77 161.348Z" fill="#FF3B01"/>
</g>
<defs>
<clipPath id="clip0">
<rect y="8" width="210" height="212" fill="white"/>
</clipPath>
<clipPath id="clip1">
<rect x="99.9648" y="80.916" width="70.9068" height="67.0481" transform="rotate(8.99318 99.9648 80.916)" fill="white"/>
</clipPath>
<clipPath id="clip2">
<rect width="60.09" height="47.88" transform="matrix(-1 0 0 1 99.09 101)" fill="white"/>
</clipPath>
<clipPath id="clip3">
<rect x="68" y="70" width="54" height="82" fill="white"/>
</clipPath>
<clipPath id="clip4">
<rect x="210" y="80.3376" width="260" height="83" fill="white"/>
</clipPath>
</defs>
</svg>
